<?xml version="1.0" encoding="UTF-8" standalone="no"?>
<!-- Created with Inkscape (http://www.inkscape.org/) -->

<svg
   version="1.1"
   id="svg1"
   width="621.99976"
   height="1603.6873"
   viewBox="0 0 621.99976 1603.6873"
   xmlns="http://www.w3.org/2000/svg"
   xmlns:svg="http://www.w3.org/2000/svg">
  <defs
     id="defs1" />
  <g
     id="g1"
     transform="translate(-157.00021,-762.46696)">
    <path
       style="fill:#000000"
       d="m 438.44012,1016.549 c -2.98241,-4.5518 0.82775,-9.4889 8.81914,-11.4278 6.22232,-1.5096 9.25531,-0.6427 11.72351,3.3509 4.68003,7.5725 1.79181,10.5279 -10.28846,10.5279 -8.0752,0 -8.75461,-0.1624 -10.25419,-2.451 z"
       id="path28" />
    <path
       style="fill:#000000"
       d="m 557.89327,1032.6341 c -1.9185,-0.9565 -2.39327,-1.976 -2.39327,-5.1396 0,-3.3762 0.38607,-4.0821 2.6725,-4.8862 2.02236,-0.7112 3.29954,-0.529 5.25,0.749 6.02475,3.9475 0.92922,12.4967 -5.52923,9.2768 z"
       id="path25" />
    <path
       style="fill:#000000"
       d="m 579.2,1035.8 c -1.79324,-1.7932 -1.44801,-6.2656 0.62874,-8.145 5.17861,-4.6866 12.53521,2.8382 7.59983,7.7736 -1.85966,1.8596 -6.52955,2.0704 -8.22857,0.3714 z"
       id="path24" />
    <path
       style="fill:#000000"
       d="m 562.7046,1064.75 c -2.82607,-2.1057 -3.16561,-6.8942 -0.71018,-10.0158 3.35511,-4.2653 7.9852,-3.5482 9.91827,1.5362 1.11718,2.9384 -0.0296,7.5478 -2.22525,8.9439 -1.80843,1.1499 -5.11108,0.9303 -6.98284,-0.4643 z"
       id="path23" />
    <path
       id="path1"
       style="fill:none;stroke:#0a0a0a;stroke-width:12;stroke-dasharray:none"
       d="m 633.89925,821.94891 c -4.4171,-7.44071 15.25822,13.31647 17.01048,16.05109 2.461,3.84058 3.75506,6.79578 6.29401,11 7.99584,13.24011 21.07513,25.84912 31.38653,37.99927 3.53217,4.16198 5.20117,5.57544 7.40973,6.89184 0.52118,0.31067 1.92334,1.25916 3.85187,0.97229 3.30499,-0.4917 3.04028,-3.60119 3.12805,-5.86413 0.14874,-3.83521 -0.79028,-12.41101 -1.99457,-16.99927 -6.79822,-25.90088 -12.89398,-52.3822 -16.56018,-79 -0.78888,-5.72742 -1.62634,-12.40454 -0.36652,-17.99927 0.70734,-3.14099 2.38965,-6.08667 5.94599,-6.49377 2.80444,-0.32105 4.92126,1.03088 6.78241,2.7716 5.22198,4.88416 7.89679,16.70142 10.21374,23.72144 6.07404,18.4032 9.18109,37.53308 15.02777,56 3.21491,10.1543 7.46235,19.6355 13.87116,27.99609 4.61066,6.01477 12.56494,11.45581 21.10028,7.99463 12.23669,-4.96216 15.9953,-23.85046 16,-35.99072 0.004,-11.05786 -0.86865,-21.98987 -1.00385,-33 C 771.80377,802.33215 768.47522,788.15869 765,773 m -602,6 c 0.18611,22.48059 6.16365,45.66504 8.84491,68 2.34984,19.57422 3.19958,43.33459 12.4753,61 2.35185,4.47913 5.13331,8.37146 8.69522,11.99609 3.32492,3.38355 6.68602,6.45667 10.98457,8.62659 7.97879,4.02783 17.68747,4.69849 26,1.2832 3.54272,-1.45556 6.05487,-3.08789 8.6713,-5.99926 C 245.96272,915.79309 249.37051,903.43555 253,893 c 9.28604,-26.69934 14.63571,-55.28613 18.28165,-83 1.03592,-7.87427 -0.10694,-11.3894 5.76156,-12.21753 2.18497,-0.30835 3.49915,1.16443 3.80866,1.47449 1.49991,1.50281 2.56717,2.64844 3.75848,8.74304 2.64304,13.52148 6.84482,29.31787 9.58179,43 2.73508,13.67261 3.56549,29.3606 5.53702,43 0.9226,6.38281 -0.18103,9.31677 4.41513,10.31946 2.72326,0.59411 5.79272,-2.65857 6.46527,-3.42517 3.32089,-3.78516 8.40753,-15.88367 10.9545,-22.89429 6.63769,-18.27075 10.12402,-40.22229 18.13037,-58 3.3316,-7.39771 6.41644,-15.51624 9.25619,-23 1.71518,-4.52014 2.73847,-6.06897 4.27393,-7.58643 0.41949,-0.41455 1.76385,-1.72436 3.76001,-1.8009 2.15314,-0.0825 3.00244,1.06152 3.41592,1.64038 1.41431,1.97998 1.77567,3.94934 2.60028,9.74695 3.01139,21.17187 7.97946,42.71387 11.27393,64 1.03464,6.68494 4.17737,19.00208 5.15048,25 1.14362,7.04883 2.67856,7.63098 6.57483,9 -1.38327,4.91089 -1.03741,6.18066 -3.33643,12 -1.22753,3.10718 -4.49792,7.76892 -6.46063,11 -6.64856,10.94519 -13.84649,21.92871 -20.34183,33 -13.8796,23.65784 -25.88906,56.8823 -24.48611,85 0.52213,10.4644 2.35635,21.9877 7.49768,31 3.6868,6.4626 8.11844,12.5173 13.21683,18 9.07815,9.7625 20.57983,19.2573 28.42129,30 2.16272,2.9629 3.78586,5.6523 5.36884,9 3.54498,7.4968 5.22842,15.6479 3.65277,24 -1.41052,7.4768 -4.71811,12.4818 -9.29013,17.9993 -6.36612,7.6825 -14.69269,13.9395 -22.24228,20.4251 -4.66843,4.0105 -9.40375,7.8083 -13.57483,12.5795 -5.52277,6.3174 -10.39761,12.7064 -14.16669,19.9961 -8.0592,15.5872 -10.37524,35.4025 -9.16897,53 1.19369,17.4143 6.42392,32.0385 17.34955,45 7.61642,9.0358 18.37033,16.191 28.56094,21.9993 14.50943,8.2697 33.15604,14.9494 50,16.834 6.9935,0.7824 18.55902,1.1638 25,1.1667 2.444,0 7.28745,-0.5057 9.39661,1.6034 2.03341,2.0334 1.54968,3.7888 1.59875,6.3966 0.096,5.1056 -0.33752,17.1619 0.42902,23 0.289,2.2009 0.52298,5.259 0.57638,7 0.14637,4.7725 0.74662,5.5881 1.55942,7 1.67481,2.9094 1.39032,6.8201 10.44367,10.4498 3.05926,1.2266 9.7673,3.1895 12.99615,3.6767 5.30093,0.8 11.68539,1.7287 17,1.8589 3.23367,0.079 5.32251,0.015 9,0.015 8.17395,0 17.77234,-0.5085 24,-1 1.53674,-5.6992 4.24835,-7.7747 4.94598,-11 0.38562,-1.783 0.09,-3.1074 0.0548,-9 -0.0223,-3.7229 -0.0105,-22.2998 -7.9e-4,-27 0.006,-2.8755 -0.71527,-6.9482 2.31787,-8.9722 2.01947,-1.3476 -91.16317,-3.938 -88.0284,-3.9598 11.13702,-0.077 121.21755,4.1988 132.71053,3.9174 22.09961,-0.5413 43.07648,-3.2615 63,-13.2554 5.95007,-2.9846 11.48804,-7.1594 15.9599,-11.7446 3.03308,-3.11 5.1806,-6.0273 7.25537,-9.9854 16.27393,-31.0468 -5.7691,-64.8599 -26.12964,-87 -6.83581,-7.4332 -13.08899,-14.7584 -18.38733,-23 -5.03192,-7.8271 -7.84802,-16.5474 -7.84802,-26 0,-34.0444 32.16022,-53.5057 49.99072,-78 2.69953,-3.7084 4.52979,-7.0037 6.72303,-11 12.58026,-22.9229 13.71362,-50.4044 11.26623,-76 -2.17016,-22.6963 -8.46625,-45.828 -16.64123,-67 -3.5235,-9.12524 -9.86274,-20.59961 -13.7901,-29 -2.47406,-5.29175 -2.20887,-6.86353 -2.75232,-8.98462 -0.15021,-0.5863 -0.19361,-2.53015 -1.63501,-4.31628 -2.25098,-2.78931 -5.30304,-3.13892 -6.83802,-4.34803 -2.20971,-1.7406 -7.14306,-9.66845 -9.81482,-13.35107 -2.06384,-2.84473 -3.90832,-5.23657 -5.98529,-8 -4.38488,-5.83411 -13.21252,-16.22644 -17.17828,-20.98462 -2.69574,-3.23437 -6.39099,-4.31641 -9.20679,-8.40503 -1.80121,-2.61548 -1.81616,-5.90723 -1.94983,-8.61035 -0.17761,-3.59167 -0.0313,-5.6344 -1.4375,-9 -1.86547,-4.46484 -2.49389,-7.33167 -5.11419,-10.99609 -2.64527,-3.69934 -6.36231,-6.40638 -10.48688,-8.69141 -4.73181,-2.62146 -11.1153,-4.77026 -16,-5.55859 -4.8476,-0.78235 -6.68524,-0.99195 -8.5741,0.85022 -2.86596,2.79516 1.672,8.14233 3.65204,10.11035 2.9314,2.91357 5.78229,5.97009 7.37732,10.28552 5.96857,16.14832 6.44629,38.92419 -15.45526,39.89575 -6.89679,0.30591 -15.03601,-1.06653 -19.68213,-6.22143 -2.33154,-2.5868 -2.30963,-5.40711 -2.31634,-8.67432 -0.0115,-5.6051 0.60199,-11.72974 5.10723,-15.7207 C 540.59467,844.53369 549.0365,849.22961 554,853 m -167,43 c 4.40677,-2.4115 6.58759,-7.32141 7.5787,-14 0.77762,-5.23987 1.87885,-16.24438 3.08643,-22 2.47128,-11.77856 7.89374,-24.2262 14.25693,-34 1.76834,-2.71619 3.12189,-5.18469 4.89276,-7.99927 1.90033,-3.02026 3.63498,-5.12439 6.22531,-7.40967 4.3577,-3.84448 9.18811,-6.79296 14.95987,-9.2539 14.37433,-6.12879 36.87927,-2.68787 50,4.56787 8.82672,4.8811 12.59396,13.58655 14.8696,23.09497 1.91192,7.98865 -1.15683,9.97314 4.27853,11.33411 2.50394,0.62695 5.42902,-1.34974 7.68207,-4.42444 1.99927,-2.7284 3.28461,-4.68372 6.18524,-6.66113 5.11945,-3.49 13.2508,-5.68458 19.98456,-6.15906 4.39062,-0.30933 8.30762,-0.40393 12,-1.08948 m -47,21 c -0.38889,4.92041 -1.16776,11.94226 -2.9884,14.78699 -2.67231,4.17541 -4.97232,3.66308 -7.4028,6.42602 -2.08619,2.37158 -6.8722,9.92249 -10.19907,13.77234 -6.63669,7.67993 -19.91327,13.57691 -30.40973,9.69141 -7.95502,-2.9447 -14.67307,-5.63245 -20.99615,-11.10498 -4.19062,-3.62696 -8.74857,-7.88977 -10.4946,-13.57178 -2.15177,-7.00244 -2.0156,-16.77368 1.62423,-23 2.17887,-3.72717 4.54975,-6.40955 7.90589,-9.42053 10.97995,-9.85071 25.27377,-16.58692 37.82715,-4.36646 3.16568,3.08179 5.93478,11.5802 6.0895,15.78699 0.0865,2.35144 -0.15673,4.35608 -0.53549,7 -0.37808,2.63928 -0.47235,4.33899 -1.10031,7 -2.21905,9.40344 -14.29867,19.99072 -24.21142,13.10645 -7.18387,-4.98914 -6.14936,-21.05506 2.89505,-24.03467 4.19906,-1.3833 13.20724,1.97986 15.99151,2.70837 2.60187,0.68079 4.52438,1.42481 6.00464,2.21985 M 633.3163,820.67795 C 636.60671,836.57688 644.78333,868.82129 647,885 c 0.73401,5.35693 3.0108,15.31519 3.70062,20 1.05512,7.16565 -0.21698,9.68323 -1.70062,12 M 503,859 c 1.13177,1.57312 2.39981,2.55493 3.28088,9 0.64273,4.70166 1.31113,11.38611 3.76465,16 2.55731,4.80908 5.69806,8.63672 9.96912,12.42358 6.14117,5.44507 12.29254,10.6493 20.98535,11.47217 11.95679,1.13184 21.81171,-3.56396 32,-9.20825 4.1283,-2.28711 7.44519,-4.76355 10.9599,-7.97681 3.35803,-3.07007 5.46002,-5.94006 7.5224,-9.71069 1.92725,-3.52368 2.98657,-7.79272 3.90271,-10.99536 C 596.44537,866.29761 597.19623,865.39246 598,864 m -150.03549,40.8905 c 3.94571,-0.95849 6.58188,4.45386 9.17361,9.1095 5.37949,9.66333 8.4852,20.37891 11.4375,31 9.71836,34.96228 11.56946,79.6954 2.79782,115 -3.20327,12.8927 -7.2427,32.7919 -23.37344,33.9027 -17.62122,1.2135 -28.40921,-21.465 -31.19522,-35.9027 -7.34277,-38.0519 3.97855,-77.45886 14.33566,-114 2.20722,-7.78723 5.09036,-18.90979 8.16821,-26 1.43708,-3.31055 1.97892,-6.8053 4.2793,-9.89111 1.61426,-2.16541 2.98813,-2.88111 4.37656,-3.21839 M 571,986.61267 c 5.04193,-0.24768 10.83734,1.64002 15,4.00696 8.05676,4.5813 13.22308,11.90227 16.6875,20.38037 8.57086,20.9746 6.98712,46.1263 -3.57715,66 -1.59167,2.9943 -3.1145,5.4238 -5.32019,8 -6.45557,7.5399 -15.28003,14.4955 -25.79016,14.9591 -5.45776,0.2407 -10.48956,-1.1947 -15,-4.0525 -3.22791,-2.0453 -5.7746,-4.0467 -8.38428,-6.9969 -3.38189,-3.8232 -5.5542,-7.3052 -7.85644,-11.9097 -9.46454,-18.9291 -8.24909,-46.3602 1.56097,-65 2.50556,-4.7607 5.4856,-9.0344 8.96912,-12.99609 2.6997,-3.07032 5.27508,-5.41846 8.71063,-7.53553 4.31427,-2.65857 9.8053,-4.60046 15,-4.85571 M 447,1013 h 4 m 115,46 v 1 m -88,92.6628 c 4.88248,-1.0404 8.52368,1.398 13,4.3418 8.98669,5.9101 18.45963,13.1501 23.67285,22.9954 3.15564,5.9595 3.02814,11.342 3.90277,18 2.13581,16.2589 1.18848,37.1727 -5.83722,52 -2.58954,5.4651 -4.56689,9.75 -7.43362,15 -6.15482,11.2716 -16.70456,19.3525 -28.30478,21.3835 -2.73776,0.4794 -4.96643,0.8261 -7.99924,-0.3935 -7.70761,-3.0994 -9.44714,-10.1159 -11.14041,-15.99 -1.11972,-3.8845 -2.55981,-8.7693 -3.41128,-13 -3.6384,-18.078 -6.21936,-38.7041 -2.98532,-57 1.16687,-6.6012 2.43304,-12.433 5,-19 1.9551,-5.0017 3.86727,-9.4585 6.65429,-14 3.36249,-5.4792 8.94049,-13.0712 14.88196,-14.3372 M 442,1519 c -3.08401,8.1746 -7.72266,28.9781 -10.5787,39 -0.96253,3.3774 -1.7204,5.6403 -2.27625,9 -2.12814,12.863 -6.26724,25.1088 -8.53009,38 -0.57459,3.2733 -0.48413,5.0486 -0.78397,8 -0.44958,4.4252 -1.87631,12.2671 -2.56015,17 -0.83954,5.8105 -3.76168,18.2043 -4.78088,23 -0.4321,2.0332 -0.64807,4.8513 -2.05322,7.8156 -2.71463,5.7266 -5.33011,7.2567 -12.43674,10.0362 -8.05829,3.152 -25.29828,0.6423 -34,0.029 -3.79211,-0.2675 -10.74146,-0.6735 -11.59259,-4.939 -2.67636,-13.4132 6.40598,-36.8848 9.39276,-51.9414 1.57016,-7.9154 1.79938,-16.1946 3.98456,-24 6.80725,-24.3152 18.46039,-47.4635 24.4668,-72 4.97882,-20.3389 2.38595,-44.7556 11.06021,-64 3.37909,-7.4967 6.83584,-12.7543 11.58719,-19 4.1578,-5.4656 8.36941,-9.8495 14.10107,-13.1196 4.56592,-2.605 11.03409,-3.5503 16,-3.885 4.92233,-0.3318 5.84979,-1.4187 7,-2.0996 3.50018,-2.0716 5.98886,-3.3504 9,-3.8958 m 70,7 c 2.22455,2.2246 4.19098,4.2349 7.00153,6.9969 1.09326,1.0744 1.70428,2.5893 5.99847,5.1451 1.62982,0.9701 4.88843,1.6895 7,1.8217 7.52136,0.4706 14.95386,1.6188 22,4.4899 6.38733,2.6028 11.08142,6.0715 16,10.6367 6.17224,5.7285 10.86591,11.9722 15.3009,18.9097 17.40485,27.2256 13.6991,66.962 13.6991,98 0,13.7334 1.90472,27.2769 0.28552,41 -1.8197,15.4224 -0.1084,31.4823 -1.19604,47 -0.30316,4.3252 -0.80658,9.0815 -1.47376,13 -2.11963,12.4487 4.8819,23.0956 -9.61572,29 1.32617,2.0712 2.54761,3.1982 1.89661,8 -0.40979,3.0227 -5.11335,20.5862 -6.21607,23.9753 -0.77179,2.3721 -1.7409,3.6071 -2.68054,5.0247 h -1 c -2.16821,-3.1526 -2.34253,-3.6309 -4,-7 -4.84332,2.0076 -5.98407,3.1172 -9,5 l -2.60339,-8.929 -7.39508,1.3033 L 566,1725 c 0.34241,-3.8923 5.61316,-13.3435 9.48303,-21 2.24079,-4.4333 0.66907,-6.343 5.62573,-8.3966 1.45661,-0.6035 5.12818,-0.5997 6.89124,-0.6034 6.7337,-0.014 11.61829,0 16,0 M 494,1496.4646 c 9.71515,-1.7517 20.39233,3.1882 30,3.554 5.11115,0.1945 8.79657,1.6103 12.60571,6.0856 2.92108,3.4319 3.45752,6.0301 3.2793,9.8958 -0.10211,2.2148 -0.73999,3.7273 -0.47681,6 0.47522,4.1035 3.82099,7.1611 1.9845,11.9066 -3.28607,8.491 -14.35291,5.834 -20.3927,7.7924 -4.18237,1.3562 -7.02002,3.8923 -12,4.8335 -9.32037,1.7612 -21.16248,1.05 -28.94138,-4.4986 -3.40124,-2.426 -3.29486,-6.9539 -5.66122,-9.2955 -3.96887,-3.9274 -11.72037,-1.9403 -12.65512,-9.7423 -0.68613,-5.7267 6.2973,-8.4545 10.04477,-11.1805 7.97458,-5.8012 11.15488,-13.3572 22.21295,-15.351 m 5,11.604 c 9.48309,-0.6573 15.43268,9.938 14.63892,13.916 -1.00422,5.0325 -3.66684,5.2005 -6.63968,6.2268 -0.49179,0.1698 -2.02277,0.5275 -4.99924,1.3426 -3.55212,0.9729 -5.20438,1.1799 -5.99924,1.1281 -2.9241,-0.1904 -6.01599,-0.26 -6.84878,-5.7253 -0.37384,-2.4534 1.08532,-16.2808 9.84802,-16.8882 M 565,1527 c 0,7.5208 -0.0331,18.9595 7.9e-4,26 0.0355,7.3524 2.18299,14.3621 1.28473,22 -0.43591,3.7067 -0.28528,5.5513 -0.28552,9 -1.8e-4,2.9282 0,4.8177 0,8 v 21 c 0,5.1921 0.26147,14.2126 -1.58795,19 -3.12872,8.0989 -4.51776,4.5125 -5.83258,13 -0.60108,3.8802 -1.39197,9.8877 -2.00073,14 -1.41077,9.5304 -2.97309,19.6283 -4.91437,29 -0.74579,3.6003 -0.22217,6.0945 -2.98224,7.9761 -2.22962,1.52 -5.29468,1.3758 -7.68213,1.7785 -5.22076,0.8807 -12.38342,3.1744 -18,3.2415 -24.32159,0.2909 -51.82074,-6.3938 -75,-13.655 -11.63699,-3.6455 -23.73868,-6.6823 -31.85187,-11.6436 -3.10754,-1.9004 -2.75433,-3.887 -3.27234,-6.6936 -0.79278,-4.2956 -2.27691,-5.1714 -2.87579,-6.0039 m 155,-29 c 1.75818,1.8845 4.35474,3.3589 5.98456,10 1.62243,6.6111 2.45044,17.0566 2.92596,24 0.3385,4.9426 -0.025,9.825 0.10413,15 0.12945,5.1886 0.96167,8.4102 4.98535,12 m -219,-24 c -0.32767,1.7639 -0.58377,3.0387 -1.05093,7.0015 -0.34647,2.9392 -4.77433,16.9548 -5.43131,19.9939 -0.60782,2.8116 -0.4823,4.3396 -0.51776,6.0046 4.68042,-1.179 9.20532,-5.2312 14,2 l 7,-5 6.60956,4.6543 2.79629,-4.6589 L 388.1304,1681 389,1673 m 24.4152,0.5146 c -2.74997,7.1841 -10.59528,26.1564 -13.66596,35.4854 -7.39215,22.458 -12.62564,50.4053 -12.74848,74 -0.0313,6.0123 -2.69104,12.6168 -2.40664,17 0.43048,6.6348 3.65448,9.2126 10.40588,10.4352 5.60471,1.015 6.06812,2.1856 11,3.3302 3.33105,0.7731 6.18585,1.0325 10,1.6451 6.07071,0.9751 16.21146,2.1454 22,2.875 2.70322,0.3407 4.32288,0.7376 7,0.8388 3.39871,0.1284 4.88116,0.1413 8,-0.23 3.30658,-0.3938 4.97974,-1.2874 6.39661,-3.1227 1.45501,-1.8848 1.56375,-13.2374 2.02777,-16.7716 0.65436,-4.9839 0.57562,-7.2854 0.57562,-12 0,-12.1681 2.47501,-25.7744 3,-38 m -91,-52 v 4 m 177,-3 c 0,9.0438 -1.81799,21.8257 -3.15509,33 -3.07257,25.6774 -5.73468,48.3142 -13.84412,73 -2.91479,8.8728 -0.75555,8.1506 -3.51471,13.9414 -1.11731,2.3447 -3.92895,3.6593 -6.48608,4.0586 v 8 c 0,7.4968 -2.28375,23.6265 -3.42358,32 -3.06635,22.5262 -4.17933,45.426 -7.15204,68 -2.73947,20.8027 -1.07489,42.9867 -2.51389,64 -3.15143,46.0186 -7.44794,91.9746 -10.82174,138 -0.9907,13.5149 -2.16865,28.7258 -3.80402,42 -0.50525,4.1011 -0.95737,7.1755 -1.61963,11 -0.65588,3.7876 -0.65894,5.9941 -0.6651,10 -0.0261,16.9392 -2.67523,36.7881 -3.01389,54 -0.11993,6.0947 0.0469,16.4268 0.004,22 -0.0154,2.002 -0.21606,3.6824 0.1875,6 0.43213,2.4819 1.52396,4.9038 2.48843,7 2.14548,4.6628 5.52155,9.1194 9.34876,12.9961 12.37659,12.5369 29.67828,15.1047 44.98535,22.7632 4.80658,2.4048 8.56879,4.7881 13,8.1389 4.17029,3.1536 7.42853,5.8433 10,10.1411 1.9978,3.3391 3.99884,5.8704 6.3241,8.9607 1.45855,1.9385 3.49731,5.1531 4.17437,6.9954 1.6261,4.4248 1.98865,5.8584 -5.49926,6 -3.08796,0.058 -6.01996,0 -8.99921,0 -8.95251,0 -19.15961,0.3628 -28,-0.019 -9.1333,-0.3945 -5.26941,-2.7197 -13,-5.2971 -3.20233,-1.0676 -9.4278,-2.6585 -13,-3.5571 -10.58429,-2.6624 -21.25391,-6.2351 -32,-8.0454 -4.54453,-0.7657 -7.4826,-2.0308 -10.6821,-0.4769 -2.05813,0.9996 -2.0708,2.6778 -2.26388,4.4144 -0.27912,2.5102 -0.37796,4.8095 -1.65741,6.5564 -3.189,4.3532 -3.04758,5.5468 -9.39661,6.2575 -2.58801,0.2898 -4.40213,-0.5625 -5,-0.8457 -2.2406,-1.0613 -3.47171,-1.5776 -6.68597,-5.2732 -1.58905,-1.8269 -2.9104,-5.8969 -3.12885,-8.7136 -0.48233,-6.2192 1.36575,-12.7859 1.79013,-19 0.89261,-13.0703 3.00894,-28.0891 3.02469,-41 0.004,-3.553 0.0205,-5.6121 -0.42438,-9 -0.44226,-3.3682 -0.57043,-5.7585 -0.57562,-9 -0.01,-5.9922 0.41467,-13.8584 -0.16977,-20 -1.68884,-17.7468 -0.34195,-37.3904 1.33954,-55 0.40597,-4.2517 0.96252,-6.2368 0.98068,-10 0.0168,-3.4895 -0.15069,-6.1804 -0.15045,-10 9.5e-4,-14.717 3.30991,-31.1621 3.96063,-46 1.7695,-40.3481 6.19086,-80.7118 8.94986,-121 1.94412,-28.3892 1.96533,-57.8217 5.66513,-86 2.64636,-20.1552 5.63495,-40.7543 7.59415,-61 0.84174,-8.6981 1.47638,-19.4319 0.66046,-28 -0.37515,-3.9397 0.0216,-5.6797 -1.42975,-8.7222 -1.14636,-2.4033 -3.2738,-2.8045 -5.40356,-3.5703 -3.32895,-1.1968 -5.71216,-2.756 -6.99692,-3.7075 m -57,0 c 0,8.5154 0.53415,15.3096 -1.24692,26 -2.7742,16.6516 -4.3006,33.3586 -6.99923,50 -3.74701,23.1061 -3.71991,45.8586 -5.92362,69 -4.18704,43.9688 -8.82092,88.0857 -13,132 -2.22684,23.3999 -10.56143,46.8054 -12.75537,70 -0.41913,4.4309 -1.70715,6.561 -0.43213,9.7715 1.2942,3.2592 16.49209,7.2285 39.35727,7.2285 0,1.9126 10e-4,3.7578 0,7.0015 -0.001,3.2314 -0.48795,8.4614 -0.83023,11.9985 -1.02503,10.5923 -1.21051,21.4619 -2.59415,32 -1.40048,10.6665 -2.23691,23.365 -2.56173,34 -0.10593,3.468 -0.50223,5.8018 -0.87961,9 -0.37152,3.1487 -0.13819,5.635 -0.13428,9 0.0133,11.481 -2.93091,24.4417 -1.83023,36 0.79526,8.3513 3.61456,17.7725 3.81558,26 0.0593,2.4272 -0.19436,6.9961 -0.69522,9 -1.52887,6.1169 -1.25635,6.8315 -1.29013,8 m 79.17251,-539.2749 48.61576,2.2427 m -77.78827,-2.9717 c 0,2.5973 0.13773,4.6904 -0.0895,8 -0.34332,5.0004 -0.84689,15.3311 -0.91434,21 -0.18429,15.4908 -4.14837,31.6704 -6.41745,47 -9.85885,66.6058 -17.57034,134.0286 -24.74459,201 -2.00312,18.699 -4.68817,37.333 -6.78394,56 -1.04712,9.3267 -1.84183,17.4912 -3.05017,24 m -41,-5 c -1.05045,1.4194 -2.26669,2.6887 -3.32022,6.0046 -1.30911,4.1206 -2.61643,14.1062 -3.43286,18.9954 -3.03638,18.1833 -5.13645,37.8818 -7.81943,56 -0.64255,4.3391 -0.39569,6.7668 -2.28165,10 -1.83825,3.1514 -2.96811,3.9812 -5.57101,7 -1.80667,2.0952 -3.4754,3.9348 -5.57868,5.96 -11.68579,11.2507 -27.12002,13.8725 -40.99615,21.3493 -12.68155,6.8333 -24.08163,14.9014 -35,24.521 -5.76263,5.0772 -12.23325,10.4378 -17.12962,16.1697 -2.82769,3.3103 -6.94785,7.6833 -5.96297,11.9421 0.70219,3.0364 5.83342,4.7068 7.09259,5.3518 3.84459,1.9695 4.0466,5.1551 15,4.6868 9.19757,-0.3933 5.23148,-2.9585 13,-5.6374 4.94888,-1.7066 15.49368,-3.93 21,-5.6875 15.13971,-4.8323 31.50439,-11.8609 47,-14.8511 3.47842,-0.6712 5.62637,-0.9204 9,-1.3797 4.35635,-0.5925 7.75076,-0.7324 11.99924,0.4375 8.70407,2.3973 8.56668,17.4244 10.45755,21.1329 1.26141,2.4741 1.66235,4.5827 5.55865,5.0842 2.10929,0.2712 3.71308,-1.1067 3.98456,-1.2693 1.28601,-0.7705 2.01309,-1.6506 5,-2.6628 3.87979,-1.315 7.24661,-1.1372 11,-1.1475 m 54,-171 c 29.06515,0 13.28781,1 44,1 m -148.40351,78.3246 c 3.3183,0.081 46.80237,9.6758 49.40351,9.6758 m 53,3 43.61283,1.0351" />
  </g>
</svg>
